<?xml version="1.0" encoding="UTF-8" standalone="no"?>
<svg
   xmlns:dc="http://purl.org/dc/elements/1.1/"
   xmlns:cc="http://creativecommons.org/ns#"
   xmlns:rdf="http://www.w3.org/1999/02/22-rdf-syntax-ns#"
   xmlns:svg="http://www.w3.org/2000/svg"
   xmlns="http://www.w3.org/2000/svg"
   xmlns:sodipodi="http://sodipodi.sourceforge.net/DTD/sodipodi-0.dtd"
   xmlns:inkscape="http://www.inkscape.org/namespaces/inkscape"
   height="500"
   id="Layer_1"
   version="1.1"
   viewBox="0 0 500 500"
   width="500"
   xml:space="preserve"
   inkscape:version="0.92.1 r15371"
   sodipodi:docname="milis-bildirim.svg"
   inkscape:export-filename="/home/trlinux/GitCalismalari/Milis_Bildirim/icons/milis-bildirim.png"
   inkscape:export-xdpi="98.300003"
   inkscape:export-ydpi="98.300003"><metadata
     id="metadata52"><rdf:RDF><cc:Work
         rdf:about=""><dc:format>image/svg+xml</dc:format><dc:type
           rdf:resource="http://purl.org/dc/dcmitype/StillImage" /><dc:title></dc:title></cc:Work></rdf:RDF></metadata><defs
     id="defs50" /><sodipodi:namedview
     pagecolor="#ffffff"
     bordercolor="#666666"
     borderopacity="1"
     objecttolerance="10"
     gridtolerance="10"
     guidetolerance="10"
     inkscape:pageopacity="0"
     inkscape:pageshadow="2"
     inkscape:window-width="1366"
     inkscape:window-height="714"
     id="namedview48"
     showgrid="false"
     inkscape:zoom="0.4609303"
     inkscape:cx="254.18637"
     inkscape:cy="280.74211"
     inkscape:window-x="0"
     inkscape:window-y="0"
     inkscape:window-maximized="1"
     inkscape:current-layer="Layer_1" /><g
     id="g18"
     transform="translate(0,435.999)" /><g
     id="g20"
     transform="translate(0,435.999)" /><g
     id="g22"
     transform="translate(0,435.999)" /><g
     id="g24"
     transform="translate(0,435.999)" /><g
     id="g26"
     transform="translate(0,435.999)" /><g
     id="g28"
     transform="translate(0,435.999)" /><g
     id="g30"
     transform="translate(0,435.999)" /><g
     id="g32"
     transform="translate(0,435.999)" /><g
     id="g34"
     transform="translate(0,435.999)" /><g
     id="g36"
     transform="translate(0,435.999)" /><g
     id="g38"
     transform="translate(0,435.999)" /><g
     id="g40"
     transform="translate(0,435.999)" /><g
     id="g42"
     transform="translate(0,435.999)" /><g
     id="g44"
     transform="translate(0,435.999)" /><g
     id="g46"
     transform="translate(0,435.999)" /><g
     id="g35"><polygon
       transform="matrix(8.9285713,0,0,7.8359175,0,54.481029)"
       id="polygon7"
       points="0,5 0,44 28,44 56,44 56,5 "
       style="fill:#dcd6cd" /><path
       inkscape:connector-curvature="0"
       id="path9"
       d="m 276.47321,266.88925 c -14.61608,11.45611 -38.32143,11.45611 -52.94642,0 l -18.63394,-14.4416 C 146.59821,298.10753 0,399.2614 0,399.2614 H 192.91963 307.08927 500 c 0,0 -146.59823,-101.15387 -204.89287,-146.81375 z"
       style="fill:#e8e3d9;stroke-width:1.04090571" /><path
       inkscape:connector-curvature="0"
       id="path11"
       d="M 0,93.660615 223.52679,266.88925 c 14.61607,11.45611 38.32142,11.45611 52.94642,0 L 500,93.660615 Z"
       style="fill:#efebde;stroke-width:1.04090571" /><path
       inkscape:connector-curvature="0"
       id="path4487"
       d="m 251.44679,362.34012 c -0.19667,-0.3182 -0.36913,-2.59639 -0.38324,-5.06264 -0.0227,-3.95099 -0.17937,-4.77618 -1.31853,-6.94088 -0.71108,-1.35124 -1.29287,-2.67302 -1.29287,-2.93728 0,-0.26426 0.90068,-0.0652 2.0015,0.44234 4.70619,2.16984 11.14951,4.68272 13.72603,5.35311 4.11703,1.0712 8.72055,5.09847 4.93202,4.31465 -1.49759,-0.30983 -2.23099,-0.7338 -6.7304,-3.89075 -1.44378,-1.01301 -2.38477,-1.29623 -4.30678,-1.29623 -3.9837,0 -6.013,2.57773 -6.02467,7.65283 -0.008,3.1277 -0.0435,3.27021 -0.60306,2.36485 z m -60.92057,-3.48818 c 0,-3.82233 0.84192,-6.59918 3.76453,-12.41628 2.2274,-4.43334 6.57983,-9.3025 13.54258,-15.15045 2.1369,-1.79476 3.88456,-3.51756 3.88368,-3.82844 -10e-4,-0.4173 -2.12733,-0.56842 -8.12377,-0.57742 -5.62701,-0.009 -8.6945,-0.21037 -9.98527,-0.65726 l -1.86313,-0.64504 5.15973,-2.45088 c 9.64205,-4.57999 19.90125,-13.47021 20.74703,-17.97859 0.69799,-3.72061 -1.72181,-3.00999 -6.51912,1.91448 -3.58836,3.68346 -5.24237,4.51575 -8.98515,4.5212 -2.57541,0.004 -7.85133,1.90926 -13.03394,4.70744 -6.72368,3.63022 -13.23721,6.65606 -14.9299,6.93562 -1.72751,0.28531 -4.70075,-1.23747 -6.86729,-3.5172 l -1.31117,-1.37965 1.90805,-1.32228 c 2.32224,-1.60931 5.311,-4.84169 4.97677,-5.38244 -0.59436,-0.96172 -4.78628,-1.48818 -9.4242,-1.18362 l -4.79432,0.31485 -1.69853,-1.98436 c -0.93419,-1.09139 -2.29681,-3.13517 -3.02802,-4.54173 -1.07381,-2.06558 -1.2059,-2.63478 -0.68696,-2.95986 0.35337,-0.22136 2.95457,-0.66878 5.78041,-0.99427 4.88987,-0.56324 5.12362,-0.63986 4.84202,-1.58724 -0.86181,-2.89952 -1.9713,-3.67114 -8.20382,-5.70563 -6.96231,-2.2727 -9.85209,-4.05707 -12.27602,-7.58012 l -1.47014,-2.1368 4.62378,0.33942 4.62379,0.3394 -0.73927,-1.13188 c -0.72558,-1.11086 -2.78779,-2.75466 -10.76177,-8.57821 -4.66003,-3.40331 -6.8119,-6.01517 -7.2589,-8.81053 -0.17591,-1.10009 -0.22768,-2.09234 -0.11509,-2.20498 0.11259,-0.11259 1.19553,0.55141 2.40641,1.4757 1.21087,0.92428 2.46497,1.68051 2.78688,1.68051 0.32191,0 1.7315,0.85519 3.13243,1.90041 3.07548,2.29461 4.39184,2.92467 22.36001,10.70218 16.79076,7.26789 24.93179,10.33566 34.1308,12.86149 16.07024,4.41253 21.4452,4.80322 31.78862,2.31062 6.42573,-1.54849 6.85043,-1.58905 16.71847,-1.59758 8.62143,-0.008 10.92966,0.14918 15.54111,1.05453 6.05082,1.18794 10.57249,2.38297 10.24722,2.70824 -0.2096,0.2096 -10.37312,1.35049 -17.19362,1.93003 -1.87789,0.15958 -3.41433,0.43451 -3.41433,0.611 0,0.91649 4.8802,4.32984 10.43074,7.29556 l 3.80263,2.03178 -4.40876,2.20674 c -2.42482,1.2137 -5.15051,2.64827 -6.05707,3.1879 -1.85981,1.10708 -4.70943,3.65457 -4.70943,4.21015 0,0.20154 0.68876,0.73306 1.53057,1.18113 1.27335,0.67777 3.20806,0.84684 11.51231,1.00613 9.04708,0.17352 10.05713,0.27477 10.78693,1.08119 1.03033,1.13851 2.61366,1.12466 5.96188,-0.0521 1.47391,-0.51804 3.26792,-0.94071 3.9867,-0.93926 1.83011,0.004 4.83892,0.89429 4.83892,1.43234 0,0.24684 -0.16513,0.4488 -0.36694,0.4488 -0.20181,0 -1.1844,0.79401 -2.18353,1.76446 l -1.8166,1.76446 0.30244,6.83024 c 0.16632,3.75665 0.43505,8.47267 0.59716,10.48006 l 0.29474,3.64981 h -2.95087 -2.95087 l 0.23587,3.29659 c 0.12966,1.81313 0.14556,3.2966 0.0352,3.2966 -0.11033,0 -2.36027,-1.55112 -4.99975,-3.44693 -2.63949,-1.8958 -7.052,-4.9681 -9.8056,-6.82731 l -5.00655,-3.38037 -2.84719,0.29758 -2.84718,0.29759 -3.78597,-7.5608 c -3.54525,-7.08006 -4.76799,-9.02084 -4.75447,-7.54638 0.003,0.33905 0.63889,3.78596 1.41284,7.65978 2.00143,10.01776 2.00326,10.00798 -1.54158,8.19954 -1.08314,-0.55258 -2.55816,-1.17356 -3.27784,-1.37996 -1.29916,-0.37258 -1.30851,-0.35937 -1.30851,1.852 v 2.22728 l -1.53056,-0.17628 c -2.08267,-0.23988 -9.55224,1.33709 -18.54761,3.91579 -14.94326,4.28374 -22.99101,8.0068 -28.31117,13.09737 l -2.00151,1.91512 z m 94.39191,-2.57518 c -0.0344,-5.51486 -0.006,-5.57017 2.45433,-4.63505 0.71843,0.27313 4.72797,0.69242 8.91013,0.93173 10.55494,0.604 11.39745,1.10508 2.98442,1.77498 -3.72995,0.297 -7.58221,0.76894 -8.56061,1.04874 -2.07518,0.59347 -5.04655,3.03541 -5.05698,4.15595 -0.004,0.42645 -0.1629,1.01836 -0.35321,1.31535 -0.19029,0.29696 -0.36043,-1.76929 -0.37808,-4.5917 z m 22.109,-19.5593 c 0.86137,-4.91745 0.88934,-6.2676 0.15314,-7.39118 -0.85187,-1.30011 -3.28354,-1.94573 -4.62482,-1.2279 -0.75383,0.40344 -0.86325,0.79427 -0.60614,2.1648 0.29831,1.59009 0.26485,1.64629 -0.67906,1.14112 -1.95762,-1.04769 -2.37754,-2.8284 -1.2841,-5.44533 l 0.67217,-1.60875 1.97029,0.77396 c 1.84456,0.72455 2.12025,0.72069 4.32063,-0.0608 2.33563,-0.82953 2.35487,-0.82832 3.0704,0.19326 1.06926,1.52656 3.48419,2.34134 6.93956,2.34134 3.5314,0 3.67989,0.24466 2.08361,3.4331 -2.09444,4.18346 -5.33907,6.55638 -9.79167,7.16102 l -2.54281,0.34531 z m 6.59104,-14.8448 c -0.55077,-0.60686 -1.59216,-2.05704 -2.31417,-3.22263 -1.69941,-2.74343 -2.42585,-3.26344 -4.58434,-3.28162 -1.9163,-0.0162 -2.47024,0.72892 -3.0297,4.07499 l -0.25075,1.49977 -1.89174,-1.25189 -1.89173,-1.25189 -1.56863,1.81464 -1.56866,1.81467 -2.58853,-2.36579 c -4.0579,-3.70869 -7.99561,-4.63712 -13.45367,-3.17212 -3.9203,1.05227 -4.54216,0.95404 -4.88733,-0.77186 l -0.29566,-1.47826 -2.47113,0.29996 c -1.35913,0.16499 -4.2725,0.40764 -6.47415,0.53922 l -4.00302,0.23924 3.76754,-1.86108 c 2.07215,-1.0236 5.35698,-2.43482 7.29962,-3.13606 1.94263,-0.70124 3.61524,-1.34337 3.71691,-1.42696 0.55597,-0.45714 -1.4523,-1.7285 -5.5067,-3.4861 -2.51237,-1.08911 -4.87824,-2.27308 -5.25753,-2.63104 -0.59184,-0.55855 -0.32477,-0.65142 1.88376,-0.65508 4.88086,-0.009 20.22332,-4.1565 22.76419,-6.15515 2.20043,-1.73086 1.68637,-2.95761 -2.17726,-5.19586 -4.51833,-2.61755 -16.1694,-10.37934 -18.24903,-12.15725 l -1.6483,-1.40916 2.62143,-0.0191 c 5.51054,-0.0402 12.76823,1.90515 21.74386,5.82829 10.77037,4.7076 16.98596,8.77151 23.40712,15.30424 3.80124,3.86725 3.98858,3.99237 4.29173,2.86642 0.29031,-1.0783 0.42623,-0.94543 1.61565,1.57925 0.98105,2.08243 1.41611,3.98292 1.77882,7.77056 0.55856,5.83251 0.11333,8.2107 -1.97455,10.54746 -1.20959,1.35376 -1.63732,1.51046 -4.56858,1.6736 -2.9147,0.16224 -3.33291,0.0711 -4.23547,-0.92337 z m -7.24006,-1.57433 c 0,-2.3957 0.75759,-2.7745 2.35471,-1.17735 0.95828,0.95827 1.31475,2.16979 0.48812,1.65891 -0.24957,-0.15423 -0.88534,0.15114 -1.41283,0.67862 -0.52748,0.52749 -1.06502,0.95907 -1.19452,0.95907 -0.12952,0 -0.23548,-0.95366 -0.23548,-2.11925 z m -29.90487,-29.25377 c -1.29509,-0.37265 -4.0905,-0.99443 -6.21203,-1.38175 -2.1215,-0.38732 -4.75,-1.01919 -5.84108,-1.40414 -1.09109,-0.38495 -4.75937,-1.00734 -8.15173,-1.38307 -6.88762,-0.76285 -17.14425,-0.3757 -23.12189,0.87278 -1.81313,0.37868 -4.93479,0.9141 -6.93702,1.18982 l -3.64043,0.5013 -7.42673,-3.56688 c -13.71855,-6.58866 -23.11392,-10.02582 -34.7414,-12.70962 -10.08659,-2.32814 -9.60391,-2.09184 -13.67363,-6.69418 -5.20015,-5.88071 -20.13761,-28.56663 -23.62839,-35.88507 -11.13387,-23.34215 -25.5094,-33.05801 -64.421615,-43.54011 -19.819701,-5.33899 -24.829134,-6.85057 -28.25655,-8.52625 -6.233458,-3.04755 -6.561234,-4.05787 -0.842841,-2.59783 5.32929,1.3607 17.067612,3.207 25.432361,4.00022 5.66296,0.53702 7.63712,0.56282 9.41885,0.12303 1.23981,-0.306 2.19462,-0.76829 2.12179,-1.02731 -0.0729,-0.25902 -2.9338,-1.64262 -6.35773,-3.07466 -6.10913,-2.55515 -12.863981,-6.25534 -17.526415,-9.60065 -1.294266,-0.92865 -2.103144,-1.68844 -1.797522,-1.68844 0.305645,0 4.225567,1.28166 8.710945,2.84814 10.789882,3.76828 21.287242,6.92536 31.937837,9.60529 9.968,2.50818 11.29939,2.906 19.18337,5.73194 5.75676,2.06347 7.32016,2.45989 6.45946,1.63789 -0.24606,-0.23501 -5.21569,-2.61345 -11.04361,-5.28546 -18.330205,-8.40411 -40.245605,-22.57328 -44.878913,-29.016 -0.790378,-1.09901 -1.346589,-2.08867 -1.236033,-2.19921 0.110555,-0.11056 2.107633,1.27085 4.437991,3.06976 2.33035,1.7989 5.88958,4.10588 7.9094,5.1266 2.0198,1.02071 4.2875,2.29386 5.03933,2.82921 6.32706,4.50527 30.113785,13.09596 34.966265,12.62823 1.52414,-0.14688 1.48748,-0.19407 -6.70897,-8.62605 -7.85125,-8.07685 -14.12828,-15.61119 -14.12828,-16.95821 0,-0.34322 -0.74174,-2.17178 -1.648305,-4.06347 -1.76039,-3.67331 -2.22038,-5.6819 -0.84473,-3.68851 4.038905,5.85251 16.517555,18.98019 23.317765,24.53052 10.8778,8.87848 32.86274,21.39707 32.86274,18.71258 0,-0.79468 -2.1683,-4.55286 -8.31399,-14.4102 -6.41848,-10.29485 -9.94973,-17.20106 -12.28103,-24.01846 -1.57981,-4.61983 -1.73322,-5.52424 -1.75305,-10.33537 -0.0259,-6.28288 0.75032,-8.04404 1.59016,-3.60801 1.79422,9.47701 4.33991,15.58307 10.27994,24.6571 11.8206,18.05729 35.16442,39.53463 55.97022,51.49506 3.76489,2.16429 7.25332,2.95753 7.25332,1.64932 0,-0.29869 -0.34185,-3.52555 -0.7597,-7.17077 -0.79977,-6.97707 -0.74688,-17.29363 0.0962,-18.78028 0.35492,-0.6258 0.49695,-0.0834 0.5821,2.2228 0.30891,8.36676 5.79429,20.94416 12.24974,28.08729 1.84493,2.04149 3.4402,3.22734 5.99383,4.4556 3.78535,1.82068 3.63915,1.59702 4.90577,7.50504 1.69531,7.9077 4.20184,15.72636 7.17136,22.36978 5.34044,11.9477 10.23736,18.96606 19.85216,28.45256 6.68939,6.60011 9.61307,8.98055 17.60649,14.33509 2.39594,1.60495 4.35623,3.01857 4.35623,3.14141 0,0.34652 -0.97085,0.19852 -3.53207,-0.53841 z m 28.87143,-9.08289 c -4.17251,-2.8391 -5.55352,-3.46162 -14.91361,-6.7227 -7.32453,-2.55186 -12.17951,-3.52028 -21.02196,-4.19322 -8.59797,-0.65436 -9.02496,-0.8192 -12.36909,-4.7755 -2.36936,-2.80309 -6.40196,-9.26889 -6.95071,-11.14464 -0.30522,-1.04329 -0.23164,-1.10121 1.01843,-0.8018 0.74109,0.17749 4.13059,0.44542 7.5322,0.5954 7.6428,0.33697 11.61302,-0.43134 17.50946,-3.38843 6.50255,-3.26103 9.50724,-7.09568 9.50724,-12.13327 0,-3.33471 -0.77101,-4.92817 -3.44453,-7.11894 -3.00627,-2.46341 -6.15849,-3.69755 -10.09508,-3.95237 -5.88449,-0.38093 -3.7252,-0.87129 3.53208,-0.80212 7.40295,0.0704 6.78468,-0.0487 19.42639,3.74922 3.34402,1.00465 7.38424,1.87616 9.35357,2.01764 l 3.46679,0.24906 -0.34758,-1.12492 c -1.63738,-5.29904 -7.83968,-9.93533 -20.75743,-15.5164 -6.99035,-3.02016 -7.01173,-3.03408 -4.90175,-3.18918 3.29795,-0.24243 10.71276,0.82206 14.5019,2.08192 5.12808,1.70507 8.46237,3.53883 17.16757,9.44173 8.19477,5.55677 9.76304,6.18815 10.75707,4.33081 0.8621,-1.61087 0.28969,-9.95696 -0.91301,-13.31201 -2.17592,-6.06998 -7.01976,-12.10786 -13.4379,-16.75043 -2.31077,-1.67151 -3.31213,-2.64787 -2.8233,-2.75284 1.02374,-0.21983 6.92152,2.74691 9.86214,4.96096 3.1207,2.34961 14.73054,12.44678 20.43133,17.76933 8.56727,7.9988 11.32292,8.73774 12.794,3.43077 0.71482,-2.57873 -0.0482,-8.94806 -1.73235,-14.4603 -1.6303,-5.3361 -6.25812,-14.74859 -8.65767,-17.6088 -1.06272,-1.26674 -1.84718,-2.38818 -1.74325,-2.49213 0.10389,-0.10389 1.45763,0.55457 3.00821,1.46333 8.93115,5.23441 16.85584,19.76061 19.04666,34.91315 0.567,3.92151 0.59278,3.97499 1.91661,3.97499 5.02094,0 10.1397,-8.05947 10.29872,-16.21527 0.0307,-1.57185 0.20819,-3.49369 0.39454,-4.27074 l 0.33881,-1.41283 0.42713,1.41283 c 0.23491,0.77705 0.41912,5.22747 0.40936,9.8898 -0.0164,7.8617 -0.11055,8.77737 -1.29576,12.61575 -1.58857,5.14456 -4.07934,10.152 -6.23851,12.54195 -2.79812,3.09717 -6.01442,5.28317 -23.29343,15.83165 -9.19313,5.61221 -18.09229,11.18451 -19.77591,12.3829 -4.16302,2.96321 -10.17859,8.78458 -11.62094,11.24577 -0.65121,1.11121 -1.43062,2.02037 -1.73204,2.02037 -0.30141,0 -2.3869,-1.25123 -4.6344,-2.78049 z"
       style="fill:#808080;stroke-width:0.4709428" /></g></svg>